<svg width="263" height="112" viewBox="0 0 263 112" fill="none" xmlns="http://www.w3.org/2000/svg">
<path d="M62.9486 1.40471C61.1486 2.50471 59.7486 3.80471 59.7486 4.30471C59.7486 6.00471 61.6486 6.50471 63.7486 5.40471C65.2486 4.60471 66.4486 4.70471 68.7486 5.90471C71.4486 7.30471 72.0486 7.30471 74.7486 5.90471C79.0486 3.70471 78.7486 1.10471 74.3486 1.90471C72.0486 2.40471 70.1486 2.10471 68.5486 1.00471C66.3486 -0.395288 65.9486 -0.395288 62.9486 1.40471Z" fill="#4C5288"/>
<path d="M63.5486 12.0047C59.8486 13.9047 58.7486 15.0047 58.7486 16.9047C58.7486 20.5047 60.3486 20.8047 64.1486 17.9047C66.0486 16.4047 68.4486 15.4047 69.4486 15.6047C71.7486 16.0047 72.5486 20.4047 70.3486 20.4047C69.5486 20.4047 67.2486 21.2047 65.2486 22.1047C61.9486 23.7047 61.7486 24.1047 61.7486 28.5047C61.7486 34.5047 63.2486 35.8047 69.0486 34.9047C72.7486 34.3047 73.6486 34.5047 73.9486 35.8047C74.2486 37.3047 74.4486 37.3047 76.5486 35.9047C78.5486 34.5047 78.7486 33.5047 78.6486 27.1047C78.4486 16.6047 77.7486 14.3047 73.8486 11.7047C69.6486 8.90468 69.4486 8.90468 63.5486 12.0047ZM72.7486 27.8047C72.7486 30.7047 70.5486 31.7047 68.1486 29.9047C66.6486 28.8047 66.5486 28.4047 67.6486 27.0047C69.7486 24.5047 72.7486 25.0047 72.7486 27.8047Z" fill="#4C5288"/>
<path d="M45.2486 11.9047C43.0486 12.7047 41.1486 13.4047 41.1486 13.4047C41.0486 13.4047 40.6486 16.7047 40.2486 20.7047C39.7486 26.5047 39.9486 28.9047 41.3486 32.3047L43.0486 36.6047L48.4486 36.2047C54.4486 35.7047 55.3486 35.1047 56.2486 31.1047C56.8486 28.8047 56.6486 28.4047 54.7486 28.4047C53.4486 28.4047 51.8486 29.2047 51.1486 30.1047C50.1486 31.5047 49.4486 31.7047 48.0486 30.8047C45.5486 29.3047 44.9486 18.3047 47.1486 16.4047C49.2486 14.7047 51.5486 15.8047 51.9486 18.6047C52.1486 20.3047 52.8486 20.9047 54.7486 20.9047C57.0486 20.9047 57.2486 20.6047 56.9486 17.4047C56.1486 10.2047 53.5486 8.90468 45.2486 11.9047Z" fill="#4C5288"/>
<path d="M84.5486 11.0047C80.9486 12.1047 79.7486 30.5047 83.0486 33.3047C83.7486 33.8047 86.1486 34.7047 88.5486 35.4047C94.0486 36.8047 95.2486 35.9047 97.2486 29.0047C98.5486 24.6047 98.5486 23.1047 97.3486 18.1047C96.6486 14.9047 95.7486 12.1047 95.4486 11.7047C94.6486 10.9047 86.6486 10.4047 84.5486 11.0047ZM93.2486 20.6047C93.5486 21.9047 93.4486 24.2047 92.9486 25.9047C92.2486 28.3047 91.5486 29.0047 88.9486 29.2047L85.7486 29.5047V24.0047V18.4047H89.2486C92.0486 18.4047 92.8486 18.8047 93.2486 20.6047Z" fill="#4C5288"/>
<path d="M111.749 31.4047C111.314 32.1266 110.931 32.7328 110.512 33.2454C108.682 35.4826 104.972 35.2365 103.034 33.0919C102.923 32.9685 102.812 32.8394 102.701 32.704C102.023 31.8746 101.55 30.8993 101.335 29.8499C101.059 28.5073 100.749 26.25 100.749 22.9047C100.749 19.4062 101.089 17.6077 101.372 16.716C101.554 16.1451 101.916 15.6536 102.248 15.1551L102.716 14.4541C103.39 13.443 104.343 12.6498 105.46 12.1711L106.062 11.9132C106.835 11.582 107.69 11.4929 108.514 11.6578V11.6578C109.319 11.8188 110.058 12.2143 110.638 12.7946L111.749 13.9047" stroke="#88AA27" stroke-width="3" stroke-linecap="round"/>
<path d="M172.749 31.4047C172.049 32.5671 171.483 33.4294 170.684 34.0843C169.045 35.4284 166.53 35.2452 164.886 33.9072C164.369 33.4862 163.91 32.9884 163.435 32.3667C162.958 31.7423 162.602 31.0352 162.426 30.2697C162.134 29.0029 161.749 26.6275 161.749 22.9047C161.749 19.4062 162.089 17.6077 162.372 16.716C162.554 16.1451 162.916 15.6536 163.248 15.1551L163.716 14.4541C164.39 13.443 165.343 12.6498 166.46 12.1711L167.062 11.9132C167.835 11.582 168.69 11.4929 169.514 11.6578V11.6578C170.319 11.8188 171.058 12.2143 171.638 12.7946L172.749 13.9047" stroke="#88AA27" stroke-width="3" stroke-linecap="round"/>
<path d="M113.749 35.4047L116.58 25.3629M126.749 35.4047L124.12 25.3629M116.58 25.3629C116.58 25.3629 120.008 13.4083 120.489 12.4519C120.971 11.4956 124.12 25.3629 124.12 25.3629M116.58 25.3629H124.12" stroke="#88AA27" stroke-width="3" stroke-linecap="round"/>
<path d="M174.749 35.4047L177.58 25.3629M187.749 35.4047L185.12 25.3629M177.58 25.3629C177.58 25.3629 181.008 13.4083 181.489 12.4519C181.971 11.4956 185.12 25.3629 185.12 25.3629M177.58 25.3629H185.12" stroke="#88AA27" stroke-width="3" stroke-linecap="round"/>
<path d="M130.249 35.9047C130.249 26.5321 130.249 21.2772 130.249 11.9047H130.404C134.209 11.9047 139.397 12.6153 139.749 16.4047V16.4047V16.4047C140.092 20.1016 135.259 21.7107 131.589 22.2753L130.749 22.4047C133.873 27.4815 135.624 30.3278 138.749 35.4047M142.249 11.9047V35.9047M154.182 12.6515L154.786 13.1346C155.42 13.6419 155.937 14.2809 156.3 15.0073L156.916 16.2387C157.468 17.3426 157.844 18.5257 158.032 19.7456L158.363 21.8998C158.619 23.5606 158.628 25.25 158.39 26.9135L158.084 29.0541C157.864 30.5945 157.246 32.0507 156.291 33.2789L155.224 34.6503C154.595 35.4595 153.696 36.0153 152.69 36.2163L152.6 36.2343C152.039 36.3465 151.461 36.3327 150.906 36.194V36.194C150.152 36.0055 149.472 35.5939 148.956 35.013L147.591 33.4769C146.383 32.1186 145.548 30.4707 145.168 28.6937L144.865 27.2811C144.457 25.3794 144.4 23.4194 144.696 21.4971L145.031 19.3185C145.175 18.3817 145.464 17.473 145.888 16.6252L146.078 16.2463C146.838 14.7263 148.07 13.4938 149.59 12.7338L150.529 12.2645C151.002 12.0278 151.524 11.9047 152.053 11.9047V11.9047C152.827 11.9047 153.578 12.168 154.182 12.6515Z" stroke="#88AA27" stroke-width="3" stroke-linecap="round"/>
<path d="M142.391 7.59333C141.75 7.2025 141.156 7.18966 141.546 6.61648C141.655 6.45601 141.908 6.00132 142.185 6.27834C142.704 6.79798 141.923 7.7624 141.377 7.7624C140.427 7.7624 140.794 7.21879 140.87 6.57891C140.935 6.02069 142.206 6.65528 142.391 6.74798" stroke="#88AA27" stroke-width="3" stroke-linecap="round"/>
<path d="M247.76 22.1C246.76 22.6 245.96 24.3 245.96 25.8C245.96 28 244.86 29.1 240.76 31.7C235.96 34.7 235.36 34.8 233.46 33.4C229.46 30.4 223.16 28 217.66 27.4C212.56 26.8 211.96 26.5 211.96 24.4C211.96 20.9 210.06 21.5 208.36 25.5C207.56 27.4 206.56 29 206.06 29C205.56 29 204.16 27.4 202.96 25.4C200.26 20.8 198.56 22 200.06 27.4C201.36 32 200.06 33.4 196.26 31.7C193.36 30.4 192.06 31.5 194.16 33.6C195.66 35.1 195.56 35.6 192.86 39.8C189.66 44.9 189.36 48.2 191.06 57.5C192.36 64.6 195.16 70.5 198.06 72C201.56 73.9 211.26 70.6 215.36 66.1C218.16 63 217.06 57.2 212.46 51C207.46 44.3 208.66 43.4 213.86 50C222.36 60.7 220.86 67.5 208.96 72.9C200.86 76.6 196.26 75.5 192.96 69C190.56 64.3 187.96 53.9 187.96 48.7V45H111.66C40.1604 45 35.1604 45.1 33.7604 46.7C31.3604 49.5 27.1604 58.3 25.8604 63.4C25.2604 65.9 24.3604 68 23.8604 68C21.8604 68 18.9604 61.4 18.9604 56.9C18.9604 50.7 22.0604 46.3 28.7604 42.9L33.9604 40.3L31.0604 36.3C27.0604 30.8 23.3604 29.4 18.4604 31.4C16.4604 32.3 14.3604 32.7 13.8604 32.4C12.1604 31.4 6.96042 36.4 4.46042 41.4C2.66042 45 1.96042 48 1.96042 52.2C1.96042 55.4 1.56042 58 0.960417 58C-0.539583 58 -0.239583 61.3 1.56042 64.8C2.36042 66.6 2.86042 68.8 2.46042 69.9C2.06042 71.2 3.26042 72.9 7.16042 76.2C13.2604 81.3 16.2604 83.1 20.4604 84C22.4604 84.4 23.6604 85.4 24.1604 87C29.8604 106.4 31.5604 109.5 37.2604 111.1C39.3604 111.6 43.1604 112 45.6604 111.8C49.9604 111.5 50.2604 111.3 51.7604 107.5C55.4604 97.8 63.1604 92.1 70.1604 94C76.6604 95.8 81.4604 101.3 83.3604 109.2C83.9604 111.9 84.2604 112 89.8604 112H95.7604L97.4604 106.9C99.4604 101 104.66 95.4 109.26 94.2C116.96 92.2 125.76 98.4 128.16 107.5L129.36 112H135.96H142.56L143.76 107.5C145.26 102 150.86 95.5 155.56 94C158.46 93 159.86 93.1 163.56 94.5C168.86 96.5 172.36 100.4 174.66 107L176.46 112H182.76C188.36 112 189.96 111.5 196.26 107.8C213.56 97.8 230.76 84.8 234.96 78.7C236.96 75.8 242.36 72 244.56 72C244.86 72 244.96 76 244.86 80.9C244.76 85.8 244.96 90.2 245.36 90.8C245.76 91.4 245.76 93.1 245.36 94.6C244.76 96.8 244.96 97.1 246.56 96.8C248.26 96.5 248.46 95.3 248.76 83.5C248.96 71.4 249.56 69.1 252.06 69C252.36 69 252.26 71.6 251.86 74.7C251.46 77.9 250.86 86.4 250.46 93.6C249.66 109.2 250.16 110.3 257.86 109.8L262.46 109.5L262.76 103.7C263.06 98.3 262.86 97.7 259.46 93.7C256.86 90.7 256.06 88.9 256.36 87.3C256.76 86.1 256.46 85 255.76 84.8C253.66 84.1 256.46 66.8 259.46 62.4C263.26 56.8 263.56 54.9 260.96 53C258.86 51.4 258.76 51 259.96 46.4C261.06 42 260.96 40.9 259.06 35.8C257.86 32.7 256.26 29.7 255.46 29C254.76 28.4 254.36 27.2 254.66 26.4C255.26 24.8 252.36 21 250.56 21C249.96 21 248.66 21.5 247.76 22.1ZM222.76 38.8C223.06 40.8 222.76 41.1 220.76 40.8C219.26 40.6 218.36 39.7 218.16 38.2C217.86 36.2 218.16 35.9 220.16 36.2C221.66 36.4 222.56 37.3 222.76 38.8ZM74.4604 53.9C81.0604 57.6 84.2604 65.8 84.3604 79L84.4604 87.5L66.5604 87.8L48.6604 88L49.2604 79.8C50.0604 68.8 52.1604 62.3 56.4604 57.2C61.7604 51 67.4604 50 74.4604 53.9ZM116.16 52C121.06 53.4 126.46 59.6 128.36 66.1C129.26 69 129.96 75.1 129.96 79.7V88L112.26 87.8L94.4604 87.5L94.7604 81C95.4604 66.3 99.9604 56.3 107.26 52.9C112.26 50.7 111.56 50.8 116.16 52ZM164.46 52.9C172.46 56.6 175.96 63.7 176.66 78.1L177.26 88H158.96H140.66L141.26 79.7C142.36 65 146.76 55.7 154.46 52.4C158.46 50.6 159.76 50.7 164.46 52.9ZM48.4604 55.5C48.4604 56.6 47.6604 57.6 46.7604 57.8C45.3604 58.1 44.9604 57.5 44.9604 55.5C44.9604 53.5 45.3604 52.9 46.7604 53.2C47.6604 53.4 48.4604 54.4 48.4604 55.5ZM91.6604 54.6C91.9604 55.4 91.5604 56.9 90.6604 57.8C89.1604 59.2 88.9604 59.2 88.3604 57.7C87.5604 55.6 88.4604 53 89.9604 53C90.5604 53 91.2604 53.7 91.6604 54.6ZM137.56 54.5C138.26 56.3 136.16 59.2 134.86 58.4C134.36 58.1 133.96 56.8 133.96 55.4C133.96 52.7 136.66 52 137.56 54.5ZM180.96 55.5C180.96 58 178.66 59 177.46 57C176.46 55.4 177.66 53 179.46 53C180.36 53 180.96 53.9 180.96 55.5ZM258.86 98.2C260.56 100.5 261.96 102.9 261.96 103.6C261.96 107.3 254.76 109.6 253.56 106.4C252.26 103 253.26 94 254.96 94C255.46 94 257.16 95.9 258.86 98.2Z" fill="#64453E"/>
</svg>
