<svg width="49" height="49" viewBox="0 0 49 49" fill="none" xmlns="http://www.w3.org/2000/svg">
<path d="M39.041 36.843C41.095 40.077 42.063 41.794 42.063 43.585C42.063 47.122 39.436 48.837 35.897 48.837C34.337 48.837 33.33 48.835 30.785 47.511C30.785 47.511 29.136 46.002 25.277 46.157C21.382 46.003 19.732 47.53 19.732 47.53C17.187 48.853 16.216 48.839 14.658 48.839C11.119 48.839 8.49 47.126 8.49 43.587C8.49 41.796 9.461 40.081 11.514 36.845C11.514 36.845 15.395 30.4 18.758 27.368C21.188 25.18 24.731 25.188 24.731 25.188H25.824C25.824 25.188 29.522 25.178 31.8 27.368C35.059 30.51 39.041 36.843 39.041 36.843ZM16.631 20.878C20.331 20.878 23.33 16.204 23.33 10.439C23.33 4.674 20.331 0 16.631 0C12.931 0 9.932 4.674 9.932 10.439C9.932 16.204 12.931 20.878 16.631 20.878ZM10.211 30.988C12.938 29.729 13.56 25.265 11.599 21.017C9.638 16.769 5.838 14.345 3.111 15.603C0.384004 16.861 -0.236996 21.326 1.723 25.574C3.684 29.822 7.484 32.245 10.211 30.988ZM32.206 20.878C35.906 20.878 38.906 16.204 38.906 10.439C38.906 4.674 35.906 0 32.206 0C28.506 0 25.507 4.674 25.507 10.439C25.507 16.204 28.506 20.878 32.206 20.878ZM45.727 15.602C42.999 14.343 39.2 16.767 37.239 21.016C35.278 25.265 35.9 29.729 38.628 30.988C41.356 32.246 45.155 29.822 47.116 25.574C49.077 21.326 48.455 16.861 45.727 15.602Z" fill="#ADBD80"/>
</svg>
